<?xml version="1.0" standalone="no"?>
<!DOCTYPE svg PUBLIC "-//W3C//DTD SVG 20010904//EN"
 "http://www.w3.org/TR/2001/REC-SVG-20010904/DTD/svg10.dtd">
<svg version="1.0" xmlns="http://www.w3.org/2000/svg"
 width="512.000000pt" height="512.000000pt" viewBox="0 0 512.000000 512.000000"
 preserveAspectRatio="xMidYMid meet">

<g transform="translate(0.000000,512.000000) scale(0.100000,-0.100000)"
fill="#000000" stroke="none">
<path d="M0 2560 l0 -2560 2560 0 2560 0 0 2560 0 2560 -2560 0 -2560 0 0
-2560z m4820 0 l0 -2260 -2260 0 -2260 0 0 300 0 300 150 0 150 0 0 -150 0
-150 1960 0 1960 0 0 1960 0 1960 -1960 0 -1960 0 0 -150 0 -150 -150 0 -150
0 0 300 0 300 2260 0 2260 0 0 -2260z m-600 1205 l0 -455 -361 0 -361 0 -69
75 c-163 173 -381 295 -631 351 -107 25 -366 25 -478 0 -236 -51 -436 -160
-606 -330 -170 -170 -280 -372 -330 -606 -23 -106 -26 -352 -5 -455 48 -245
161 -457 335 -631 170 -170 362 -274 608 -331 101 -23 373 -23 476 0 246 56
439 162 610 334 l93 93 360 0 359 0 0 -455 0 -455 -1660 0 -1660 0 0 1660 0
1660 1660 0 1660 0 0 -455z m-3620 -1205 l0 -1360 -150 0 -150 0 0 1360 0
1360 150 0 150 0 0 -1360z m2185 870 c313 -81 560 -328 646 -645 18 -65 22
-107 22 -225 0 -118 -4 -160 -22 -225 -86 -317 -329 -561 -646 -646 -105 -29
-325 -32 -428 -6 -328 82 -580 328 -668 652 -32 115 -32 335 0 450 92 341 366
595 709 660 104 20 282 13 387 -15z m1435 -870 l0 -450 -273 0 -273 0 23 69
c46 139 57 207 57 381 0 174 -11 242 -57 381 l-23 69 273 0 273 0 0 -450z"/>
<path d="M2110 2860 l0 -150 150 0 150 0 0 150 0 150 -150 0 -150 0 0 -150z"/>
<path d="M2710 2860 l0 -150 150 0 150 0 0 150 0 150 -150 0 -150 0 0 -150z"/>
<path d="M2110 2260 l0 -150 150 0 150 0 0 150 0 150 -150 0 -150 0 0 -150z"/>
<path d="M2710 2260 l0 -150 150 0 150 0 0 150 0 150 -150 0 -150 0 0 -150z"/>
</g>
</svg>
